<svg width="199" height="126" viewBox="0 0 199 126" fill="none" xmlns="http://www.w3.org/2000/svg">
<g clip-path="url(#clip0_1250_1505)">
<path d="M132.332 49.5147C133.799 47.9539 133.723 45.4995 132.162 44.0328C130.601 42.566 128.147 42.6423 126.68 44.2031C125.213 45.764 125.29 48.2183 126.85 49.6851C128.411 51.1519 130.866 51.0756 132.332 49.5147Z" fill="white"/>
<path d="M124.708 18.7154C124.726 19.0137 124.761 19.312 124.787 19.6191C124.805 19.9701 124.831 20.3123 124.875 20.672C124.893 20.8036 124.919 20.9265 124.937 21.0581H124.928C124.945 21.1897 124.98 21.3389 125.007 21.488C125.007 21.5144 125.016 21.5495 125.007 21.5933C125.024 21.646 125.024 21.7074 125.042 21.76C125.086 22.0584 125.13 22.3655 125.191 22.6726C125.226 22.8656 125.279 23.0411 125.305 23.2341C125.358 23.471 125.41 23.6991 125.463 23.9185C125.524 24.1905 125.577 24.4274 125.63 24.6819C125.63 24.6819 125.63 24.6906 125.63 24.6994C125.665 24.8222 125.7 24.9539 125.744 25.0942C125.779 25.2259 125.823 25.3575 125.867 25.4803C125.875 25.5154 125.884 25.5593 125.893 25.5944C125.963 25.8225 126.016 26.0594 126.077 26.2788C126.13 26.4367 126.165 26.6034 126.218 26.7614C126.218 26.7701 126.218 26.7789 126.226 26.7965C126.226 26.7965 126.226 26.7965 126.226 26.8052C126.349 27.165 126.446 27.5598 126.551 27.823C126.604 27.981 126.648 28.1389 126.709 28.2969C126.753 28.4109 126.788 28.5162 126.814 28.6303C126.849 28.7092 126.867 28.7794 126.893 28.8496C126.946 29.0251 127.007 29.1918 127.077 29.3498C127.139 29.5077 127.192 29.6656 127.253 29.8148C127.27 29.885 127.306 29.964 127.332 30.0342C127.385 30.1921 127.428 30.3325 127.464 30.4729C127.516 30.6484 127.578 30.8151 127.639 30.973C127.674 31.0169 127.683 31.0871 127.7 31.1397C127.753 31.2538 127.806 31.3854 127.85 31.4995C127.92 31.6662 127.981 31.8329 128.043 31.9996C128.192 32.3857 128.332 32.7542 128.49 33.1315H128.499C128.56 33.2982 128.613 33.4473 128.683 33.5965C128.78 33.851 128.894 34.1317 129.017 34.4125C129.131 34.6757 129.236 34.9214 129.332 35.1934C129.473 35.5181 129.604 35.8164 129.745 36.1323C129.859 36.413 129.99 36.7026 130.113 36.9658H130.122C130.192 37.1676 130.262 37.3431 130.35 37.5186C130.499 37.8783 130.657 38.2381 130.815 38.5803C130.859 38.6592 130.894 38.7558 130.938 38.8523C131.052 39.0892 131.157 39.3349 131.263 39.5805C131.614 40.379 131.973 41.2038 132.351 42.0198C132.368 42.0198 132.395 42.0198 132.412 42.011H132.43L132.447 42.0022C132.5 41.9847 132.561 41.9847 132.614 41.9671C132.781 41.932 132.939 41.9057 133.097 41.8882C134.737 41.5811 136.378 41.2827 137.949 40.9669C139.774 40.6247 141.564 40.2474 143.292 39.835C143.292 39.8438 143.275 39.835 143.266 39.8525C143.45 39.7999 143.643 39.756 143.819 39.7209L143.889 39.7034C144.056 39.6595 144.222 39.6332 144.389 39.5893C144.433 39.563 144.486 39.5542 144.512 39.5542C145.117 39.4051 145.714 39.2471 146.302 39.0716C146.363 39.0716 146.416 39.0453 146.486 39.0365C146.644 38.9839 146.784 38.94 146.942 38.8961L146.995 38.8786C147.179 38.826 147.364 38.7645 147.548 38.7119C147.802 38.6329 148.065 38.5627 148.311 38.4838C148.443 38.4399 148.583 38.396 148.715 38.3521C148.767 38.3346 148.811 38.317 148.873 38.2995C149.338 38.1503 149.803 37.9836 150.259 37.8169C150.417 37.7643 150.566 37.7116 150.706 37.659C151.294 37.4396 151.856 37.2115 152.409 36.957C152.54 36.9044 152.654 36.8517 152.786 36.7903C153.216 36.5885 153.646 36.3779 154.067 36.1586C154.225 36.0796 154.383 36.0006 154.523 35.9305C155.041 35.6497 155.541 35.3689 156.024 35.0618C156.024 35.0618 156.05 35.0443 156.068 35.0355C156.559 34.7196 157.024 34.395 157.48 34.0528C157.603 33.9562 157.726 33.8597 157.858 33.7544C158.226 33.4824 158.568 33.1753 158.902 32.8858C158.998 32.7893 159.095 32.7103 159.191 32.6138C159.604 32.2277 159.981 31.8329 160.358 31.3942C160.446 31.3064 160.516 31.2011 160.604 31.0958C160.902 30.7536 161.183 30.3851 161.446 29.9991C161.551 29.8587 161.622 29.7446 161.727 29.6042C162.043 29.1129 162.359 28.6039 162.631 28.0863C162.929 27.5247 163.192 26.9632 163.412 26.3841C163.868 25.2434 164.184 24.0677 164.359 22.8656C164.456 22.2689 164.508 21.6723 164.535 21.0844C164.614 19.2331 164.403 17.3817 163.912 15.583C163.912 15.5566 163.894 15.5303 163.885 15.504C163.885 15.4864 163.885 15.4689 163.877 15.4513C163.412 13.6702 162.683 11.968 161.701 10.3447C161.551 10.0991 161.043 9.25673 160.534 8.77414C159.832 7.82652 159.033 6.93155 158.147 6.08922C156.699 4.74676 155.067 3.54469 153.207 2.56197C152.549 2.21978 151.909 1.92145 151.242 1.64945C151.022 1.56171 150.794 1.50029 150.575 1.41255C150.136 1.23706 149.689 1.09667 149.241 0.947512C148.978 0.868544 148.715 0.815898 148.46 0.73693C148.048 0.622865 147.636 0.526348 147.223 0.438605C146.942 0.377186 146.67 0.350863 146.39 0.289443C145.995 0.228023 145.582 0.175378 145.196 0.131507C144.907 0.0964095 144.626 0.078861 144.336 0.0613125C143.95 0.0349897 143.564 0.0262155 143.178 0.00866699C142.897 0.00866699 142.617 0.0174412 142.327 0.0349897C141.941 0.0349897 141.564 0.0613125 141.186 0.0964095C141.143 0.0964095 141.072 0.113958 141.02 0.131507C140.923 0.140281 140.818 0.149055 140.73 0.157829C140.73 0.157829 140.73 0.157829 140.721 0.157829C140.721 0.157829 140.713 0.157829 140.704 0.157829C140.581 0.166604 140.476 0.166603 140.37 0.184152C140.274 0.2017 140.195 0.210475 140.116 0.228023C140.09 0.228023 140.055 0.236798 140.019 0.245572L139.923 0.26312L139.677 0.306992C139.616 0.306992 139.563 0.306992 139.502 0.306992C139.318 0.359637 139.124 0.403508 138.931 0.44738C138.8 0.473702 138.659 0.500025 138.519 0.535122C138.466 0.543896 138.423 0.552671 138.37 0.561445C137.993 0.640413 137.624 0.754478 137.256 0.868544C137.194 0.877318 137.124 0.903641 137.054 0.921189C137.054 0.921189 137.036 0.921189 137.027 0.929963C136.966 0.938738 136.905 0.956286 136.843 0.973835C136.843 0.973835 136.826 0.991383 136.817 1.00016C136.668 1.03525 136.519 1.09667 136.404 1.14932C136.255 1.20197 136.115 1.24584 135.975 1.29848L135.922 1.31603H135.913C135.913 1.31603 135.834 1.34235 135.799 1.36868C135.764 1.37745 135.729 1.38622 135.685 1.41255C135.597 1.43887 135.501 1.47397 135.431 1.50906C135.194 1.60558 134.957 1.71087 134.72 1.82494C134.483 1.92145 134.246 2.02674 134.018 2.15836C133.746 2.30752 133.474 2.47423 133.202 2.62339C133.114 2.67604 133.018 2.72868 132.93 2.7901C132.851 2.83398 132.763 2.87785 132.693 2.93049C132.456 3.07088 132.228 3.22882 132.009 3.37798C131.991 3.37798 131.956 3.39553 131.947 3.41308C131.921 3.43062 131.903 3.44817 131.886 3.44817C131.605 3.64998 131.333 3.86056 131.07 4.07114C131.061 4.07114 131.052 4.08869 131.043 4.09747C130.885 4.22031 130.719 4.34315 130.561 4.48353C130.438 4.58883 130.324 4.69412 130.219 4.79941C130.219 4.79941 130.21 4.80818 130.201 4.81696C130.192 4.81696 130.184 4.81696 130.192 4.83451C129.912 5.09773 129.64 5.36096 129.368 5.64174C129.368 5.64174 129.368 5.64174 129.368 5.65928C129.139 5.88741 128.929 6.13309 128.718 6.38755C128.648 6.46652 128.578 6.54548 128.516 6.63323C128.35 6.83503 128.192 7.06316 128.025 7.28252C127.946 7.37026 127.885 7.46678 127.814 7.57207C127.814 7.58085 127.797 7.59839 127.788 7.60717C127.753 7.65104 127.727 7.70368 127.692 7.74756C127.569 7.93182 127.446 8.09853 127.332 8.29156C127.192 8.51092 127.06 8.73027 126.928 8.94085L126.612 9.54628C126.358 10.0289 126.147 10.5465 125.963 11.0642C125.937 11.1256 125.902 11.1783 125.893 11.2485C125.832 11.424 125.761 11.6082 125.717 11.7837C125.682 11.8715 125.665 11.9416 125.638 12.0382C125.638 12.0382 125.63 12.0382 125.63 12.0557V12.0733C125.612 12.1084 125.586 12.1522 125.577 12.1961C125.577 12.1961 125.577 12.2049 125.577 12.24C125.551 12.2838 125.524 12.3891 125.489 12.5207C125.463 12.5646 125.454 12.6085 125.445 12.6611C125.402 12.8015 125.349 12.9507 125.331 13.056C125.314 13.1525 125.296 13.2139 125.287 13.249C125.27 13.3104 125.261 13.3806 125.252 13.4333C125.235 13.5824 125.2 13.7316 125.173 13.8895C125.13 14.1177 125.068 14.337 125.033 14.5651C125.007 14.6704 124.989 14.7933 124.972 14.8986C124.945 15.0039 124.937 15.1092 124.928 15.2144C124.928 15.2144 124.91 15.2144 124.901 15.2144C124.901 15.2583 124.901 15.3022 124.901 15.3461C124.893 15.5128 124.875 15.6532 124.866 15.7935C124.84 16.127 124.796 16.4779 124.779 16.8201C124.779 16.9693 124.779 17.1097 124.779 17.2588C124.779 17.408 124.779 17.5484 124.761 17.7063C124.77 18.0485 124.761 18.4083 124.761 18.7505L124.708 18.7154ZM158.788 24.6292L149.355 27.4282L146.302 36.7816L140.73 28.6654H137.361H131.728H130.894L131.324 28.1038L136.878 20.8651L133.851 11.538C133.851 11.538 133.895 11.538 133.921 11.538L143.108 14.7933L149.917 9.85338L151.075 9.04615L150.821 18.8558L158.779 24.638L158.788 24.6292Z" fill="white"/>
<path d="M64.4556 74.7215L64.0345 75.827C62.4551 76.9852 60.9371 78.0381 59.4806 78.977C58.2961 79.7491 57.1116 80.53 55.9007 81.267C55.2865 81.6443 54.6811 82.0304 54.0757 82.4252C50.7502 84.6188 47.0914 87.2248 45.0908 90.7608C42.9675 94.5074 45.1523 99.5526 49.9781 99.1402C52.0839 98.9647 54.0494 98.254 55.8919 97.0256C57.7345 95.7972 59.4543 94.1213 61.0688 91.9979C62.6832 89.8746 64.2012 87.3476 65.6226 84.417C67.044 81.4864 68.3777 78.2311 69.65 74.6425C70.5976 73.7826 71.5979 72.835 72.6683 71.7996C73.7388 70.773 74.7917 69.7464 75.827 68.7199C76.8624 67.6933 77.8276 66.7193 78.7225 65.7717C79.6175 64.8329 80.3633 63.9993 80.96 63.2711C81.4162 62.7183 81.6444 62.2181 81.6444 61.7707C81.6444 61.3232 81.5128 60.9985 81.2495 60.7967C80.9951 60.5949 80.6353 60.5423 80.1966 60.6476C79.7579 60.7441 79.3367 61.0512 78.9156 61.5688C78.1083 62.5516 77.0379 63.701 75.7042 65.0347C74.3705 66.3684 73.0281 67.6845 71.6593 68.9831L78.4944 49.6183L72.3963 50.7677C72.0366 51.7329 71.6768 52.7683 71.2908 53.8914C70.9398 54.8565 70.5537 55.9446 70.1326 57.1642C69.7114 58.375 69.2551 59.6561 68.7638 61.0073C68.483 61.7443 68.1671 62.4726 67.8162 63.2096C67.4652 63.9467 67.0791 64.6486 66.6667 65.3155C66.2456 65.9911 65.8156 66.6228 65.3769 67.2107C64.9382 67.7986 64.5083 68.2899 64.0871 68.6935C62.7534 69.9834 61.9199 70.5361 61.5952 70.3256C61.2618 70.1237 61.3232 69.3779 61.7795 68.1057L67.5617 51.689L61.5162 52.8297C60.6037 55.3742 59.7614 57.7433 58.9893 59.9456C58.6383 60.8757 58.2961 61.8321 57.9627 62.8148C57.6292 63.7975 57.3134 64.7276 56.9887 65.6138C56.9536 65.7103 56.9185 65.8068 56.8834 65.9033L52.8297 70.8257C52.2331 71.5452 51.7417 72.0453 51.3644 72.3173C50.9784 72.5893 50.6888 72.6683 50.4958 72.563C50.3027 72.4577 50.215 72.2032 50.2326 71.7996C50.2501 71.4048 50.3642 70.8783 50.566 70.229L59.8228 44.4678L53.4088 45.7927C51.8997 50.0395 50.5396 53.9265 49.3025 57.4713C48.776 58.9717 48.2496 60.4896 47.7231 62.0339C47.1967 63.5694 46.7053 64.9908 46.2578 66.2982C45.8016 67.6055 45.3979 68.755 45.0382 69.7377C44.6872 70.7204 44.4415 71.4399 44.3012 71.8961C43.9853 72.8174 43.7572 73.6861 43.6168 74.5109C43.4764 75.3269 43.4764 76.0376 43.6168 76.643C43.7659 77.2484 44.073 77.6784 44.5644 77.9504C45.0557 78.2224 45.7928 78.2575 46.7667 78.0732C48.3461 77.7749 49.7675 77.1695 51.0222 76.2657C52.2857 75.362 53.479 74.2301 54.6021 72.8613L54.7776 72.6507C54.6811 73.3614 54.6986 73.9844 54.839 74.5196C54.997 75.1251 55.3216 75.555 55.813 75.8182C56.3043 76.0902 57.0238 76.1341 57.9714 75.9498C59.542 75.6515 60.9635 75.0636 62.2006 74.1774C63.4466 73.3 64.6311 72.1769 65.7542 70.8081C65.4383 71.6943 65.1663 72.484 64.9382 73.1684C64.7101 73.8616 64.5434 74.3793 64.4381 74.7215H64.4556ZM52.2594 94.5688C51.7154 94.7531 51.1363 94.8759 50.566 94.8496C50.3466 94.8408 50.1273 94.8057 49.9167 94.7443C49.1533 94.5249 48.4689 93.8844 48.39 93.0947C48.3461 92.6648 48.4689 92.2436 48.6269 91.84C49.6973 89.0849 52.3033 87.4002 54.6197 85.7595C55.9709 84.8031 57.3572 83.8993 58.7523 83.0131C59.4543 82.5656 60.1562 82.1357 60.8582 81.697C61.2091 81.4776 62.4639 80.9775 62.6218 80.609C60.5247 85.5226 57.8486 92.6736 52.2594 94.5688Z" fill="white"/>
<path d="M150.926 83.6099C152.479 82.2675 153.821 80.732 154.98 79.0035C156.111 77.2662 156.954 75.4411 157.524 73.5108C157.875 72.2824 158.094 71.1505 158.112 70.1239C158.13 69.0973 158.007 68.1936 157.691 67.4741C157.375 66.7283 156.91 66.1931 156.278 65.8421C155.646 65.4648 154.839 65.342 153.883 65.4385C152.795 65.5525 151.689 65.9649 150.601 66.6756C149.513 67.3863 148.443 68.255 147.451 69.2991L148.82 65.921L142.915 66.4914C141.45 70.1327 140.081 73.4581 138.809 76.5116C138.291 77.8189 137.747 79.1175 137.194 80.4424C136.676 81.7761 136.159 82.9957 135.703 84.1364C135.246 85.277 134.816 86.2861 134.457 87.1635C134.088 88.0409 133.851 88.6815 133.693 89.1026L126.621 106.011L132.798 105.344L139.616 88.5411L139.651 88.3217L139.809 88.5147C141.88 88.3129 143.845 87.804 145.732 86.9354C147.618 86.0667 149.338 84.9612 150.917 83.5924L150.926 83.6099ZM140.818 85.6719L144.863 75.7307L144.924 75.6517C145.53 74.1601 146.284 73.0282 147.214 72.2385C148.144 71.4137 148.978 71.0189 149.68 70.9926C150.408 70.975 150.908 71.3699 151.172 72.1946C151.435 73.0194 151.242 74.3356 150.54 76.0904C150.048 77.3714 149.452 78.556 148.759 79.6352C148.083 80.7408 147.337 81.7147 146.521 82.5132C145.696 83.3467 144.801 84.0574 143.828 84.6102C142.854 85.163 141.862 85.5227 140.827 85.6631L140.818 85.6719Z" fill="white"/>
<path d="M165.184 99.6404C155.541 103.405 149.557 103.238 140.458 98.842C145.547 108.029 159.832 112.898 169.273 108.871C172.028 107.695 173.362 104.835 172.361 102.255C171.229 99.3421 168.509 98.3506 165.184 99.6404Z" fill="white"/>
<path d="M151.426 93.4899C150.233 94.3586 148.952 95.1044 147.267 96.1924C158.27 96.8417 169.527 88.2605 171.633 78.0999C172.23 75.2395 170.598 72.5107 167.904 71.8351C164.973 71.1068 162.42 72.6686 161.824 76.0028C160.551 83.1802 157.384 89.1554 151.426 93.4899Z" fill="white"/>
<path d="M9.4323 103.834C11.7136 103.58 13.8458 102.518 15.6532 101.106C17.8205 99.4209 19.6719 97.2537 21.1986 94.9899C22.3392 93.3053 23.3483 91.6381 24.2169 89.9974C28.139 83.25 31.403 76.1867 34.0002 68.8339L34.8425 66.4648C35.369 66.4034 35.913 66.2981 36.4745 66.1577C38.089 65.8857 39.5543 65.368 40.8968 64.5959C42.2305 63.8238 43.3887 62.9639 44.3714 62.025C45.3541 61.0862 46.135 60.1386 46.7053 59.1822C47.2932 58.2258 47.6442 57.4361 47.7845 56.8219C47.9249 56.1989 47.8109 55.8216 47.4424 55.6725C47.0738 55.5233 46.4333 55.7778 45.5208 56.4095C44.152 57.4624 42.7481 58.2082 41.3092 58.6645C39.8702 59.1208 38.4137 59.4454 36.9484 59.6472C37.5099 57.7783 38.1153 55.848 38.7646 53.8562C39.4139 51.8645 40.1071 49.9517 40.8441 48.1179C41.5812 46.2928 42.3708 44.5818 43.2044 43.0025C44.0467 41.4231 44.9417 40.0982 45.8893 39.0102C47.96 39.0541 50.0044 39.0804 52.0401 39.0891C53.1456 39.0891 54.2512 39.0891 55.3567 39.0541C77.0116 38.51 98.491 32.1926 115.688 18.7329C116.373 18.1977 117.127 17.4606 116.943 16.6095C116.794 15.9076 116.013 15.4864 115.294 15.4952C114.574 15.4952 113.907 15.8286 113.258 16.1445C103.65 20.8738 93.5774 24.6643 83.2325 27.4282C72.5981 30.271 61.6303 31.2537 50.7327 32.5348C48.2057 32.8331 45.591 33.07 42.8973 33.2367C40.1948 33.4034 37.4748 33.6228 34.7197 33.8948C31.9734 34.1668 29.2095 34.5353 26.4368 35.0003C23.6641 35.4742 20.9441 36.1322 18.2855 36.9746C12.7753 38.7206 6.95796 41.1862 3.07975 45.6523C1.26348 47.7318 -0.00879018 50.3816 -1.59323e-05 53.1367C0.00875832 55.8918 1.49161 58.7171 3.99227 59.8841C5.33473 60.5159 6.879 60.6387 8.35307 60.4281C12.1348 59.8929 15.4778 57.0325 16.6096 53.3912C16.6184 53.3561 16.6272 53.3298 16.636 53.2947C16.7588 52.891 16.8378 52.3997 16.557 52.0838C16.2411 51.7328 15.6883 51.803 15.2321 51.9259C13.7931 52.3119 12.3805 52.9086 10.8801 52.9261C9.38843 52.9437 7.73887 52.1716 7.35281 50.7326C7.01938 49.4866 7.71255 48.2144 8.50223 47.1966C13.0736 41.3266 21.0933 40.1596 28.0162 39.3612C30.473 39.0804 32.921 38.9224 35.3778 38.9137C37.8346 38.8961 40.2826 38.9137 42.7394 38.9488C41.2653 40.1596 39.8877 41.6249 38.6067 43.3183C37.3256 45.0205 36.1411 46.8368 35.0531 48.7672C33.9651 50.6975 32.9736 52.6805 32.0523 54.7073C31.1398 56.7342 30.2975 58.647 29.5253 60.4457C28.2706 60.7177 27.0247 61.1037 25.7963 61.6127C24.5679 62.1128 23.4009 62.7533 22.2954 63.543C21.1898 64.3239 20.1895 65.2364 19.2946 66.2718C18.4084 67.2984 17.6976 68.4829 17.1712 69.799C17.0659 70.0008 17.0308 70.1939 17.0659 70.3869C17.101 70.5799 17.1887 70.7466 17.3291 70.8783C17.4695 71.0186 17.6275 71.0888 17.8029 71.1152C17.9784 71.1327 18.1715 71.0888 18.382 70.9748C18.8734 70.7028 19.3384 70.422 19.7771 70.15C20.2159 69.8692 20.6809 69.5884 21.1723 69.3164C22.0848 68.8163 22.9885 68.4215 23.8835 68.1319C24.7785 67.8336 25.6822 67.6055 26.5947 67.43C25.9981 68.9128 25.4365 70.3781 24.9101 71.8522C24.3836 73.3175 23.8923 74.774 23.436 76.2306C23.0499 77.38 22.6376 78.6523 22.1988 80.0474C21.7601 81.4425 21.2775 82.8727 20.7511 84.3467C19.2156 88.611 17.4344 93.0069 14.109 96.2095C12.7665 97.4993 10.8099 98.8944 8.83565 98.6926C8.36185 98.6488 7.85294 98.4557 7.64236 98.0258C6.8439 96.4113 9.01114 94.5249 10.1957 93.8668C11.1345 93.3403 12.1611 92.9718 12.9859 92.2787C13.8107 91.5943 14.4073 90.4624 14.0563 89.4534C13.7843 88.6724 13.0122 88.146 12.1962 87.9968C11.3802 87.8564 10.5466 88.0407 9.7745 88.339C5.97525 89.7955 2.78142 94.2792 2.84284 98.3943C2.86916 100.079 3.55356 101.799 4.89602 102.817C6.15951 103.782 7.85294 104.019 9.4323 103.843V103.834Z" fill="white"/>
<path d="M198.825 44.4151C198.772 44.3362 198.719 44.2835 198.631 44.1958C198.061 43.7395 197.228 44.0642 196.578 44.3888C195.631 44.9065 194.683 45.4154 193.709 45.9067C193.604 45.9594 193.516 46.012 193.411 46.0647C193.384 46.0647 193.384 46.091 193.358 46.091C193.165 46.1963 192.981 46.3104 192.788 46.3893C192.384 46.635 191.972 46.8456 191.568 47.0386C189.998 47.881 188.374 48.6882 186.725 49.3638C183.101 50.8817 179.311 51.9347 175.415 52.6103C173.467 52.9349 171.466 53.1806 169.492 53.3385C169.062 53.3649 168.65 53.3912 168.246 53.4175C165.781 53.5754 163.324 53.6369 160.885 53.5754C154.769 53.4438 148.443 52.7945 142.678 54.874C140.809 55.5233 139.107 56.4183 137.563 57.4975C137.536 57.4975 137.51 57.5239 137.484 57.5502C137.185 57.7695 136.887 57.9801 136.589 58.2258C136.317 58.4451 136.071 58.6821 135.808 58.9014C134.641 59.849 133.588 60.9283 132.588 62.0689C127.341 68.0179 124.068 76.1604 121.014 83.1447C116.013 94.6126 110.169 106.195 101.509 115.39C100.211 116.741 98.8331 118.093 97.0432 118.689C95.9903 119.066 94.6654 119.066 93.9283 118.259C93.3054 117.584 93.279 116.583 93.3054 115.662C93.4633 111.547 94.4372 107.52 95.5779 103.571C100.395 86.6895 108.344 70.3781 120.681 57.8573C121.111 57.4273 121.55 56.7254 121.137 56.2604C120.734 55.8831 120.084 56.1814 119.619 56.4797C112.179 61.481 103.203 63.4289 94.7619 66.4034C87.9969 68.7812 81.0741 72.1418 76.529 77.8977C72.9052 82.5217 69.9834 89.5586 73.8265 94.9636C75.5814 97.394 78.5295 98.8593 81.5654 98.4294C86.0052 97.8064 89.2516 93.6913 89.9536 89.4446C90.0326 88.9269 89.9536 88.2776 89.4973 88.1723C89.2517 88.1197 89.0147 88.225 88.7954 88.3302C86.5492 89.5499 84.7066 91.9014 81.8988 91.4714C79.4947 91.0941 77.5994 88.9269 77.5205 86.5228C77.4152 83.6009 79.4947 80.8721 81.6356 79.0822C83.0395 77.8889 84.6101 76.8886 86.2333 76.0551C91.8576 73.1069 98.0786 71.703 103.896 69.2112C104.545 68.9391 106.195 68.5092 106.625 67.9389C101.755 74.5634 97.052 81.3284 93.3668 88.6286C89.664 95.9551 86.9528 103.861 86.3649 112.056C86.1719 114.276 86.1719 116.575 86.8212 118.707C87.4968 120.848 88.9007 122.848 90.9363 123.796C94.4811 125.419 98.6489 123.471 101.676 121.006C108.739 115.302 113.223 106.967 116.961 98.8242C116.504 102.395 116.443 106.045 116.855 109.59C117.18 112.38 117.908 115.381 120.102 117.276C121.594 118.575 123.594 119.251 125.542 119.172C127.49 119.093 129.359 118.303 130.929 117.171C132.281 116.25 133.474 115.065 134.228 113.6C134.606 112.872 134.878 112.056 134.799 111.249C134.746 110.441 134.281 109.625 133.553 109.301C132.254 108.73 130.824 109.731 129.955 110.819C129.087 111.924 128.358 113.284 127.034 113.74C125.252 114.39 123.243 113.065 122.41 111.494C121.409 109.599 121.734 107.248 122.085 105.221C122.567 102.351 123.217 99.4823 124.006 96.7009C124.822 93.8843 125.735 91.1292 126.797 88.4268C127.85 85.698 129.017 83.013 130.263 80.3632C131.561 77.6081 132.965 74.8969 134.404 72.2207C135.352 70.3781 136.352 68.597 137.457 66.8333C138.756 64.7538 140.274 62.7796 142.081 61.095C143.652 59.6033 145.486 58.3662 147.495 57.5239C147.521 57.4975 147.548 57.4975 147.6 57.4712C147.653 57.4449 147.706 57.4186 147.758 57.3922C149.382 56.7429 151.057 56.3393 152.821 56.12C153.523 56.041 154.225 56.0147 154.927 55.9884C155.278 55.962 155.629 55.962 155.98 55.962C157.849 55.962 159.744 56.12 161.604 56.3657C162.71 56.4973 163.824 56.664 164.956 56.8482C165.851 56.9799 166.711 57.1202 167.606 57.2255C170.229 57.6291 172.879 57.9538 175.529 57.9011C176.608 57.9011 177.696 57.8222 178.775 57.6555C179.346 57.5765 179.942 57.4975 180.504 57.3835C185.672 56.3832 190.542 54.0054 194.516 50.5922L194.595 50.5132C195.841 49.434 196.973 48.2407 198.035 46.9684C198.035 46.9421 198.061 46.9158 198.087 46.8895C198.14 46.8368 198.193 46.7578 198.245 46.6964C198.517 46.3718 198.789 45.9155 198.895 45.4768C198.895 45.4768 198.903 45.4593 198.921 45.4242C199.026 45.0469 199 44.6959 198.816 44.3976L198.825 44.4151Z" fill="white"/>
<path d="M49.32 107.748L47.7494 113.196L47.5827 113.223L42.9411 108.432L42.5638 108.485L39.1068 120.497L42.3182 119.97L43.8888 114.504L44.0379 114.477L48.7058 119.286L49.0743 119.233L52.5314 107.221L49.32 107.748Z" fill="white"/>
<path d="M13.6703 113.513L9.82713 119.242L9.67797 119.26L8.94093 114.276L5.60672 114.82L7.61602 125.937L8.10738 125.858L17.0308 112.969L13.6703 113.513Z" fill="white"/>
<path d="M41.6689 108.985L32.026 110.538L31.1837 113.372L34.3951 112.855L31.8505 121.664L35.1321 121.138L37.6766 112.319L40.888 111.802L41.6689 108.985Z" fill="white"/>
<path d="M69.8342 109.722L69.6763 109.748L67.6845 104.422L67.2195 104.501L61.2179 116.917L64.5697 116.373L66.9387 111.363L67.0967 111.337L68.1145 114.82L68.5444 114.75L71.747 110.582L71.9137 110.556L71.475 115.259L74.8005 114.715L75.7218 103.124L75.2655 103.203L69.8342 109.722Z" fill="white"/>
<path d="M58.6646 105.888L49.7325 118.777L53.0754 118.233L53.8651 117.057L57.6732 116.443L57.8399 117.461L61.1565 116.926L59.1472 105.809L58.6646 105.888ZM55.1023 115.241L56.9975 112.284L57.1291 112.267L57.4275 114.864L55.1023 115.241Z" fill="white"/>
<path d="M30.3852 113.522L31.1837 110.679L22.269 112.118L18.926 123.761L27.8758 122.305L28.7093 119.462L22.9622 120.392L23.5062 118.479L28.2355 117.716L28.9111 115.373L24.1818 116.136L24.6819 114.443L30.3852 113.522Z" fill="white"/>
<path d="M17.6275 112.872L14.2845 124.507L17.4959 123.989L20.8389 112.354L17.6275 112.872Z" fill="white"/>
</g>
<defs>
<clipPath id="clip0_1250_1505">
<rect width="199" height="125.937" fill="white"/>
</clipPath>
</defs>
</svg>
