<svg width="113" height="118" viewBox="0 0 113 118" fill="none" xmlns="http://www.w3.org/2000/svg">
<g id="icon">
<g id="Ellipse 20" filter="url(#filter0_b_307_191)">
<ellipse cx="56.1163" cy="61.5418" rx="56.1163" ry="56.096" fill="#1D77FF" fill-opacity="0.1"/>
<path d="M111.557 61.5418C111.557 92.1494 86.7356 116.962 56.1163 116.962C25.497 116.962 0.675532 92.1494 0.675532 61.5418C0.675532 30.9342 25.497 6.12136 56.1163 6.12136C86.7356 6.12136 111.557 30.9342 111.557 61.5418Z" stroke="white" stroke-opacity="0.3" stroke-width="1.35106"/>
</g>
<g id="Rectangle 47">
<g filter="url(#filter1_i_307_191)">
<path d="M29.8594 40.6236C28.3718 37.2398 31.8204 33.7925 35.2036 35.2813L63.2006 47.6016C66.2419 48.9399 68.6709 51.3697 70.0081 54.4116L82.3183 82.413C83.8059 85.7968 80.3573 89.2441 76.974 87.7553L48.9771 75.435C45.9357 74.0967 43.5068 71.6669 42.1695 68.625L29.8594 40.6236Z" fill="url(#paint0_linear_307_191)" fill-opacity="0.8"/>
</g>
<path d="M35.3851 34.8691C31.626 33.2148 27.7942 37.0452 29.4471 40.805L41.7572 68.8064C43.1398 71.9513 45.6511 74.4635 48.7955 75.8472L76.7925 88.1675C80.5517 89.8218 84.3834 85.9914 82.7306 82.2316L70.4204 54.2302C69.0378 51.0852 66.5266 48.5731 63.3821 47.1894L35.3851 34.8691Z" stroke="url(#paint1_linear_307_191)" stroke-opacity="0.5" stroke-width="0.900709"/>
</g>
</g>
<defs>
<filter id="filter0_b_307_191" x="-29.2731" y="-23.8272" width="170.779" height="170.738" filterUnits="userSpaceOnUse" color-interpolation-filters="sRGB">
<feFlood flood-opacity="0" result="BackgroundImageFix"/>
<feGaussianBlur in="BackgroundImageFix" stdDeviation="14.6365"/>
<feComposite in2="SourceAlpha" operator="in" result="effect1_backgroundBlur_307_191"/>
<feBlend mode="normal" in="SourceGraphic" in2="effect1_backgroundBlur_307_191" result="shape"/>
</filter>
<filter id="filter1_i_307_191" x="28.6001" y="34.0214" width="55.4279" height="55.4441" filterUnits="userSpaceOnUse" color-interpolation-filters="sRGB">
<feFlood flood-opacity="0" result="BackgroundImageFix"/>
<feBlend mode="normal" in="SourceGraphic" in2="BackgroundImageFix" result="shape"/>
<feColorMatrix in="SourceAlpha" type="matrix" values="0 0 0 0 0 0 0 0 0 0 0 0 0 0 0 0 0 0 127 0" result="hardAlpha"/>
<feOffset dx="0.450355" dy="0.450355"/>
<feGaussianBlur stdDeviation="0.675532"/>
<feComposite in2="hardAlpha" operator="arithmetic" k2="-1" k3="1"/>
<feColorMatrix type="matrix" values="0 0 0 0 1 0 0 0 0 0.698039 0 0 0 0 0.113725 0 0 0 0.34 0"/>
<feBlend mode="normal" in2="shape" result="effect1_innerShadow_307_191"/>
</filter>
<linearGradient id="paint0_linear_307_191" x1="22.1948" y1="50.2082" x2="89.9554" y2="71.7178" gradientUnits="userSpaceOnUse">
<stop stop-color="white"/>
<stop offset="1" stop-color="white" stop-opacity="0.8"/>
</linearGradient>
<linearGradient id="paint1_linear_307_191" x1="24.0235" y1="45.7711" x2="37.4549" y2="29.1853" gradientUnits="userSpaceOnUse">
<stop stop-color="white" stop-opacity="0.6"/>
<stop offset="1" stop-color="white" stop-opacity="0.1"/>
</linearGradient>
</defs>
</svg>
