<svg width="138" height="141" viewBox="0 0 138 141" fill="none" xmlns="http://www.w3.org/2000/svg">
<g filter="url(#filter0_b_307_188)">
<path d="M106.938 30.0691C104.186 27.1562 100.112 26.0711 96.3144 27.2134L7.74691 53.7716C3.73963 54.9196 0.899303 58.2151 0.134177 62.4015C-0.647463 66.6623 2.08277 72.071 5.64969 74.3327L33.3428 91.884C36.1832 93.6831 39.8492 93.2319 42.1996 90.7874L73.911 57.8838C75.5073 56.1704 78.1495 56.1704 79.7458 57.8838C81.3421 59.5401 81.3421 62.2245 79.7458 63.9379L47.9793 96.8472C45.6234 99.286 45.183 103.084 46.917 106.031L63.8378 134.874C65.8194 138.301 69.2322 140.243 72.9753 140.243C73.4156 140.243 73.911 140.243 74.3514 140.186C78.6449 139.614 82.0577 136.587 83.3237 132.304L109.58 41.0922C110.736 37.2084 109.69 32.9819 106.938 30.0691Z" fill="#64C7FF" fill-opacity="0.1"/>
<path d="M96.4225 27.574L96.4228 27.574C100.084 26.4729 104.009 27.5179 106.664 30.3277C109.326 33.1443 110.336 37.2317 109.219 40.9847L109.218 40.988L82.9626 132.197C82.9625 132.198 82.9624 132.198 82.9623 132.198C81.7357 136.347 78.4395 139.262 74.3023 139.812C73.8907 139.866 73.4208 139.866 72.9753 139.866C69.3691 139.866 66.0793 137.998 64.1638 134.686L64.1626 134.683L47.2417 105.841L47.2415 105.84C45.5924 103.037 46.013 99.4247 48.2501 97.1089L48.2502 97.1087L80.0167 64.1994L80.0168 64.1995L80.0213 64.1946C81.7494 62.3398 81.7561 59.4293 80.019 57.6246C78.2743 55.7547 75.3826 55.7547 73.6379 57.6246C73.6371 57.6254 73.6363 57.6263 73.6355 57.6271L41.9285 90.5261L41.9282 90.5264C39.7005 92.8432 36.232 93.2683 33.5443 91.5659L5.85134 74.0147C5.85131 74.0147 5.85129 74.0147 5.85126 74.0147C4.13976 72.9294 2.60823 71.0726 1.60128 68.9551C0.593977 66.8368 0.131887 64.5009 0.504548 62.4695L0.504593 62.4692C1.24577 58.4138 3.99024 55.2395 7.85061 54.1335L7.85062 54.1336L7.85506 54.1322L96.4225 27.574Z" stroke="white" stroke-opacity="0.3" stroke-width="0.753104"/>
</g>
<defs>
<filter id="filter0_b_307_188" x="-16.3175" y="10.4498" width="142.679" height="146.11" filterUnits="userSpaceOnUse" color-interpolation-filters="sRGB">
<feFlood flood-opacity="0" result="BackgroundImageFix"/>
<feGaussianBlur in="BackgroundImageFix" stdDeviation="8.15863"/>
<feComposite in2="SourceAlpha" operator="in" result="effect1_backgroundBlur_307_188"/>
<feBlend mode="normal" in="SourceGraphic" in2="effect1_backgroundBlur_307_188" result="shape"/>
</filter>
</defs>
</svg>
