<svg width="113" height="120" viewBox="0 0 113 120" fill="none" xmlns="http://www.w3.org/2000/svg">
<g filter="url(#filter0_b_307_196)">
<path d="M66.7152 15.5933C70.6512 15.5933 74.2148 17.7729 76.1828 20.9905C77.1402 22.5474 77.7785 24.4675 77.6189 26.4915C77.5125 28.0484 77.9912 29.6053 78.8422 31.0584C81.5549 35.4695 87.5652 37.1302 92.2458 34.6392C97.5115 31.6292 104.16 33.4456 107.192 38.5833L110.756 44.7071C113.84 49.8448 112.138 56.4357 106.82 59.3937C102.299 62.0405 100.703 67.9047 103.415 72.3678C104.267 73.769 105.224 74.9626 106.713 75.6892C108.575 76.6752 110.011 78.2321 111.021 79.789C112.989 83.0066 112.83 86.9507 110.915 90.4277L107.192 96.6553C105.224 99.9767 101.554 102.053 97.7775 102.053C95.9159 102.053 93.8415 101.534 92.1394 100.496C90.7565 99.6134 89.1609 99.302 87.4588 99.302C82.1931 99.302 77.7785 103.609 77.6189 108.747C77.6189 114.715 72.7255 119.386 66.6088 119.386H59.3751C53.2052 119.386 48.3119 114.715 48.3119 108.747C48.2055 103.609 43.7908 99.302 38.5251 99.302C36.7699 99.302 35.1742 99.6134 33.8445 100.496C32.1424 101.534 30.0149 102.053 28.2065 102.053C24.3769 102.053 20.7068 99.9767 18.7389 96.6553L15.0688 90.4277C13.1008 87.0545 12.9945 83.0066 14.9625 79.789C15.8135 78.2321 17.4091 76.6752 19.2176 75.6892C20.7068 74.9626 21.6642 73.769 22.5685 72.3678C25.2279 67.9047 23.6322 62.0405 19.1112 59.3937C13.8455 56.4357 12.1434 49.8448 15.1752 44.7071L18.7389 38.5833C21.8238 33.4456 28.4192 31.6292 33.7381 34.6392C38.3655 37.1302 44.3759 35.4695 47.0885 31.0584C47.9395 29.6053 48.4182 28.0484 48.3119 26.4915C48.2055 24.4675 48.7905 22.5474 49.8011 20.9905C51.7691 17.7729 55.3328 15.6971 59.2156 15.5933H66.7152ZM63.0452 52.8548C54.6945 52.8548 47.9395 59.3937 47.9395 67.5415C47.9395 75.6892 54.6945 82.1762 63.0452 82.1762C71.3958 82.1762 77.9912 75.6892 77.9912 67.5415C77.9912 59.3937 71.3958 52.8548 63.0452 52.8548Z" fill="#1D77FF" fill-opacity="0.1"/>
<path d="M75.6814 21.2988L75.6807 21.2976C73.8121 18.2427 70.4322 16.1819 66.7152 16.1819H59.2235C55.5414 16.2829 52.1651 18.2537 50.3033 21.2976L50.2992 21.3043L50.2949 21.311C49.3477 22.7702 48.8011 24.5668 48.8994 26.4562C49.0146 28.1602 48.4885 29.8326 47.5964 31.3558L47.59 31.3668L47.5899 31.3667C44.7148 36.0421 38.3627 37.7972 33.4591 35.1575L33.4481 35.1516L33.4482 35.1515C28.4113 32.3011 22.1688 34.0185 19.2456 38.8829L15.684 45.0031L15.6822 45.0062C12.8159 49.8636 14.4253 56.0862 19.3995 58.8806L19.4086 58.8857L19.4086 58.8858C24.2019 61.6919 25.9066 67.9156 23.0741 72.6691L23.0687 72.6781L23.063 72.687C22.145 74.1096 21.1183 75.4128 19.488 76.2121C17.7714 77.151 16.2679 78.628 15.4789 80.0713L15.4721 80.0839L15.4646 80.0961C13.6215 83.1095 13.7067 86.9239 15.5765 90.1299C15.5768 90.1303 15.577 90.1307 15.5772 90.1311L19.2453 96.3552L75.6814 21.2988ZM75.6814 21.2988C76.59 22.7764 77.1797 24.5737 77.0321 26.4452L77.0321 26.4452L77.0317 26.4514C76.9151 28.157 77.4414 29.8311 78.3343 31.3558L78.3342 31.3559L78.3408 31.3667C81.2171 36.044 87.5687 37.7951 92.5224 35.1588L92.5302 35.1546L92.5379 35.1502C97.5222 32.3011 103.815 34.0202 106.684 38.8809M75.6814 21.2988L106.684 38.8809M106.684 38.8809C106.684 38.8814 106.685 38.8819 106.685 38.8825L110.247 45.0032L110.251 45.0101C113.166 49.8647 111.559 56.0842 106.533 58.8793L106.533 58.8792L106.522 58.8858C101.729 61.6918 100.022 67.9179 102.912 72.6734C103.784 74.1087 104.812 75.4137 106.446 76.2137C108.188 77.1388 109.552 78.608 110.523 80.1028C112.356 83.1055 112.23 86.8139 110.404 90.1347L106.687 96.3532L106.685 96.3552C104.823 99.4985 101.345 101.464 97.7775 101.464C96.0166 101.464 94.052 100.971 92.4505 99.9959C90.9437 99.0365 89.2279 98.7134 87.4588 98.7134C81.8778 98.7134 77.2001 103.271 77.0306 108.729L77.0303 108.738V108.747C77.0303 114.369 72.4218 118.797 66.6088 118.797H59.3751C53.5071 118.797 48.9005 114.367 48.9005 108.747H48.9006L48.9003 108.735C48.7872 103.271 44.1048 98.7134 38.5251 98.7134C36.7098 98.7134 34.9885 99.0339 33.5289 99.9986C31.9292 100.971 29.914 101.464 28.2065 101.464C24.5846 101.464 21.1078 99.4976 19.246 96.3564L106.684 38.8809ZM63.0452 52.2662C54.3859 52.2662 47.3509 59.0524 47.3509 67.5415C47.3509 76.0332 54.3887 82.7648 63.0452 82.7648C71.7099 82.7648 78.5798 76.0251 78.5798 67.5415C78.5798 59.0605 71.7127 52.2662 63.0452 52.2662Z" stroke="white" stroke-opacity="0.3" stroke-width="1.17723"/>
</g>
<defs>
<filter id="filter0_b_307_196" x="-11.9681" y="-9.91343" width="149.901" height="154.806" filterUnits="userSpaceOnUse" color-interpolation-filters="sRGB">
<feFlood flood-opacity="0" result="BackgroundImageFix"/>
<feGaussianBlur in="BackgroundImageFix" stdDeviation="12.7533"/>
<feComposite in2="SourceAlpha" operator="in" result="effect1_backgroundBlur_307_196"/>
<feBlend mode="normal" in="SourceGraphic" in2="effect1_backgroundBlur_307_196" result="shape"/>
</filter>
</defs>
</svg>
