<svg width="309" height="70" viewBox="0 0 309 70" fill="none" xmlns="http://www.w3.org/2000/svg">
<g clip-path="url(#clip0_307_257)">
<path d="M303.897 6.04053C301.312 6.04053 299.218 8.13384 299.218 10.7253C299.218 13.3167 301.312 15.41 303.897 15.41C306.482 15.41 308.581 13.3167 308.581 10.7253C308.581 8.13384 306.488 6.04053 303.897 6.04053ZM303.897 14.6219C301.74 14.6219 299.994 12.8753 299.994 10.719C299.994 8.5626 301.74 6.81606 303.897 6.81606C306.053 6.81606 307.8 8.5626 307.8 10.719C307.8 12.8753 306.053 14.6219 303.897 14.6219Z" fill="#636363"/>
<path d="M306.06 13.2788C306.06 13.2788 305.978 13.1464 305.896 13.0203C305.814 12.8942 305.662 12.642 305.549 12.4654C305.246 11.9862 305.07 11.7214 304.88 11.5071C304.685 11.2801 304.603 11.2107 304.408 11.1161L304.294 11.0594H304.351C304.792 10.9963 305.082 10.8576 305.347 10.5865C305.599 10.3217 305.725 10.0064 305.725 9.64703C305.725 9.43896 305.694 9.28764 305.599 9.09218C305.53 8.94716 305.454 8.83366 305.334 8.71387C305.107 8.48057 304.849 8.37339 304.426 8.32294C304.149 8.28511 304.067 8.28511 302.957 8.27881H301.848V10.7946V13.3103H302.655V11.1729H302.951C303.355 11.1729 303.506 11.1918 303.664 11.2738C303.846 11.362 304.036 11.5701 304.269 11.9169C304.414 12.1376 304.471 12.2321 304.824 12.8564C304.849 12.9068 304.887 12.9762 304.906 13.0077C304.925 13.0455 304.969 13.1275 305.007 13.1905L305.076 13.3103H306.072L306.053 13.2851L306.06 13.2788ZM304.048 10.4604C303.96 10.473 303.796 10.4793 303.298 10.4793H302.661V9.72269V8.95977H303.329C303.865 8.96607 304.017 8.97238 304.111 8.98499C304.281 9.01021 304.37 9.03543 304.49 9.09218C304.679 9.18675 304.798 9.33808 304.849 9.54615C304.868 9.6155 304.868 9.64703 304.862 9.74791C304.855 9.94968 304.792 10.0884 304.653 10.2271C304.59 10.2902 304.559 10.3154 304.502 10.3406C304.37 10.4037 304.256 10.4352 304.042 10.4604H304.048Z" fill="#636363"/>
<path d="M62.9887 43.7454H55.5171V22.5537C55.5171 18.4301 58.8588 15.0884 62.9824 15.0884V43.7391L62.9887 43.7454Z" fill="#4D4D4D"/>
<path d="M107.302 43.8651H102.157L75.5739 25.6936V43.739H68.1023V15.1514H73.3104L99.8614 32.8815V22.5852C99.8614 18.4805 103.191 15.1514 107.295 15.1514V43.8651H107.302Z" fill="#4D4D4D"/>
<path d="M151.652 43.6821H144.212V36.6834H119.918V43.6821H112.447V27.6166C112.447 23.4551 114.483 20.2206 118.569 17.9192C121.936 16.034 125.851 15.0945 130.303 15.0945H133.853C138.392 15.0945 142.314 16.034 145.624 17.9192C149.641 20.1764 151.652 23.411 151.652 27.6166V43.6821ZM144.212 29.1487V27.6102C144.212 25.8511 142.863 24.5018 140.164 23.5623C138.178 22.8688 136.072 22.5283 133.853 22.5283H130.303C126.204 22.5283 123.273 23.3227 121.513 24.9116C120.53 25.7691 119.994 26.6897 119.912 27.6733V29.1487H144.206H144.212Z" fill="#4D4D4D"/>
<path d="M194.868 34.672C194.868 37.2445 194.01 39.3882 192.295 41.1032C190.58 42.8182 188.443 43.6757 185.895 43.6757H157.648V36.2041H185.832C186.898 36.2041 187.434 35.6934 187.434 34.6656C187.434 33.6379 186.898 33.1272 185.832 33.1272H164.679C162.144 33.1272 160.013 32.2697 158.272 30.5547C156.539 28.8397 155.668 26.6707 155.668 24.0603C155.668 21.45 156.539 19.3504 158.272 17.6417C160.006 15.9393 162.144 15.0818 164.679 15.0818H185.517C189.622 15.0818 192.951 18.4109 192.951 22.5156H164.735C163.67 22.5156 163.134 23.0263 163.134 24.054C163.134 25.1448 163.67 25.6871 164.735 25.6871H185.889C188.443 25.6871 190.574 26.5383 192.289 28.247C194.004 29.9494 194.861 32.0931 194.861 34.6656L194.868 34.672Z" fill="#4D4D4D"/>
<path d="M207.478 43.7451H200.006V22.5535C200.006 18.4299 203.348 15.0881 207.472 15.0881V43.7388L207.478 43.7451Z" fill="#4D4D4D"/>
<path d="M251.797 43.8651H246.652L220.07 25.6936V43.739H212.598V15.1514H217.806L244.357 32.8815V22.5852C244.357 18.4805 247.686 15.1514 251.791 15.1514V43.8651H251.797Z" fill="#4D4D4D"/>
<path d="M295.139 43.6821H270.284C266.16 43.6821 262.743 42.3328 260.019 39.6342C257.301 36.9355 255.939 33.5245 255.939 29.4009C255.939 25.2773 257.301 21.8347 260.019 19.1361C262.736 16.4374 266.16 15.0881 270.284 15.0881H295.139V22.5282H270.284C268.209 22.5282 266.551 23.1524 265.296 24.3946C264.042 25.6367 263.411 27.3076 263.411 29.4009C263.411 31.4942 264.029 33.1777 265.265 34.3883C266.501 35.6052 268.171 36.2105 270.284 36.2105H287.705V33.1335H270.101V32.8057C270.101 28.8775 273.285 25.6997 277.207 25.6997H295.145V43.6821H295.139Z" fill="#4D4D4D"/>
<path d="M6.53216 13.2029C10.1398 13.2029 13.0643 10.2783 13.0643 6.67071C13.0643 3.0631 10.1398 0.13855 6.53216 0.13855C2.92455 0.13855 0 3.0631 0 6.67071C0 10.2783 2.92455 13.2029 6.53216 13.2029Z" fill="url(#paint0_linear_307_257)"/>
<path d="M13.0194 16.8523L12.369 17.2264C9.35927 18.957 8.3224 22.7998 10.0531 25.8095L22.8044 47.9848C24.5351 50.9945 28.3779 52.0314 31.3876 50.3007L32.038 49.9267C35.0477 48.196 36.0846 44.3532 34.3539 41.3435L21.6026 19.1683C19.8719 16.1586 16.0291 15.1217 13.0194 16.8523Z" fill="url(#paint1_linear_307_257)"/>
<path d="M25.3449 0.837571L24.6944 1.21159C21.6847 2.94224 20.6478 6.78505 22.3785 9.79475L33.5992 29.3081C35.3298 32.3178 39.1726 33.3547 42.1823 31.624L42.8328 31.25C45.8425 29.5194 46.8793 25.6766 45.1487 22.6669L33.928 3.15348C32.1974 0.143789 28.3545 -0.89308 25.3449 0.837571Z" fill="url(#paint2_linear_307_257)"/>
<path d="M38.5056 0.13855H59.319C56.1664 5.61144 54.0163 8.52443 50.7376 14.218C50.6368 10.7628 49.9621 7.99479 49.5397 6.56352C49.3379 5.88886 48.8776 5.3277 48.2597 4.98723C46.3114 3.91535 41.696 1.44372 38.5056 0.13855Z" fill="url(#paint3_linear_307_257)"/>
<path d="M196.255 62.7808V68.1781C194.773 69.2625 192.503 70.0066 190.555 70.0066C186.305 70.0066 183.071 66.917 183.071 62.8439C183.071 58.7707 186.362 55.7253 190.731 55.7253C192.818 55.7253 194.943 56.5261 196.368 57.7745L194.584 60.0444C193.543 59.0797 192.1 58.4807 190.731 58.4807C188.247 58.4807 186.318 60.3849 186.318 62.8565C186.318 65.3281 188.266 67.2512 190.75 67.2512C191.595 67.2512 192.598 66.9485 193.499 66.4883V62.7997H196.248L196.255 62.7808Z" fill="#4D4D4D"/>
<path d="M215.454 65.8448H212.226V69.8549H209.054V55.8132H215.151C218.821 55.8132 220.908 57.5787 220.908 60.6871C220.908 62.8561 219.987 64.4198 218.279 65.2206L221.267 69.8549H217.673L215.448 65.8448H215.454ZM215.151 63.1966C216.898 63.1966 217.9 62.3958 217.9 60.788C217.9 59.1802 216.898 58.4425 215.151 58.4425H212.226V63.1966H215.151Z" fill="#4D4D4D"/>
<path d="M247.698 62.8373C247.698 66.8915 244.451 70 240.157 70C235.864 70 232.616 66.9104 232.616 62.8373C232.616 58.7641 235.864 55.7188 240.157 55.7188C244.451 55.7188 247.698 58.7705 247.698 62.8373ZM235.864 62.8373C235.864 65.3026 237.85 67.232 240.195 67.232C242.541 67.232 244.451 65.3089 244.451 62.8373C244.451 60.3657 242.547 58.4867 240.195 58.4867C237.843 58.4867 235.864 60.372 235.864 62.8373Z" fill="#4D4D4D"/>
<path d="M272.232 63.985C272.232 67.6988 269.804 70.0002 265.933 70.0002C262.062 70.0002 259.552 67.6925 259.552 63.985V55.8198H262.724V63.985C262.724 66.009 264.048 67.2322 265.933 67.2322C267.818 67.2322 269.06 66.009 269.06 63.985V55.8198H272.232V63.985Z" fill="#4D4D4D"/>
<path d="M291.059 55.8198C294.628 55.8198 296.677 57.5853 296.677 60.6937C296.677 63.9661 294.628 65.8514 291.059 65.8514H288.272V69.8614H285.101V55.8198H291.059ZM288.272 63.2032H290.902C292.667 63.2032 293.67 62.4024 293.67 60.7946C293.67 59.1868 292.667 58.4491 290.902 58.4491H288.272V63.2032Z" fill="#4D4D4D"/>
</g>
<defs>
<linearGradient id="paint0_linear_307_257" x1="6.53216" y1="-0.618071" x2="6.53216" y2="48.3983" gradientUnits="userSpaceOnUse">
<stop stop-color="#49AF60"/>
<stop offset="1" stop-color="#056835"/>
</linearGradient>
<linearGradient id="paint1_linear_307_257" x1="22.1999" y1="-0.879872" x2="22.1999" y2="48.5211" gradientUnits="userSpaceOnUse">
<stop stop-color="#49AF60"/>
<stop offset="1" stop-color="#056835"/>
</linearGradient>
<linearGradient id="paint2_linear_307_257" x1="33.7632" y1="-0.752948" x2="33.7632" y2="48.6796" gradientUnits="userSpaceOnUse">
<stop stop-color="#49AF60"/>
<stop offset="1" stop-color="#056835"/>
</linearGradient>
<linearGradient id="paint3_linear_307_257" x1="38.5056" y1="7.17512" x2="59.319" y2="7.17512" gradientUnits="userSpaceOnUse">
<stop stop-color="#49AF60"/>
<stop offset="1" stop-color="#056835"/>
</linearGradient>
<clipPath id="clip0_307_257">
<rect width="308.575" height="70" fill="white"/>
</clipPath>
</defs>
</svg>
