<svg width="287" height="228" viewBox="0 0 287 228" fill="none" xmlns="http://www.w3.org/2000/svg">
<g clip-path="url(#clip0_307_224)">
<path d="M199.67 103.837C199.737 103.588 199.388 103.017 199.22 102.795C198.877 102.345 198.541 101.888 198.205 101.418C197.519 100.457 196.841 99.4552 196.155 98.4135C194.764 96.2899 193.366 94.0117 191.874 91.6057C188.427 86.048 184.596 79.5493 180.88 71.7604C176.72 63.0306 172.627 51.747 171.431 39.2067C171.397 38.8707 171.102 38.5683 170.967 38.743C167.466 43.3734 166.713 50.5441 168.124 58.0037C170.497 70.4835 177.197 80.2617 183.104 87.5332C185.12 90.013 187.11 92.2845 189.052 94.3947C190.9 96.4108 192.708 98.2858 194.448 100.067C195.248 100.887 196.041 101.686 196.814 102.466C197.197 102.856 197.58 103.239 197.956 103.622C198.205 103.87 198.561 104.099 198.897 104.186C199.253 104.28 199.562 104.227 199.677 103.83L199.67 103.837Z" fill="url(#paint0_linear_307_224)"/>
<path d="M201.579 50.5708C201.485 59.1528 201.982 66.6259 202.452 73.2455C202.681 76.4982 202.943 79.5492 203.205 82.4256C203.528 85.9874 203.864 89.2938 204.233 92.365C204.307 93.0102 204.388 93.6553 204.462 94.3005C204.542 94.9188 204.616 95.5303 204.697 96.1486C204.778 96.74 204.852 97.3247 204.932 97.9161L205.167 99.6096C205.255 100.221 205.315 100.9 205.745 101.417C206.189 101.948 207.016 102.069 207.6 102.244C208.299 102.446 209.435 102.674 209.798 102.425C209.972 102.305 210.147 102.076 210.248 101.888C210.819 100.86 211.397 99.7911 211.989 98.6889C214.596 93.7965 217.412 88.0102 220.443 81.1084C222.963 75.3691 225.853 68.763 228.514 60.9068C228.776 60.1272 229.045 59.3342 229.314 58.5345C233.951 44.4418 242.788 14.6771 229.193 2.9769C222.533 -2.70856 214.623 -0.000236293 209.186 9.17984C207.822 11.4715 206.646 14.1261 205.692 17.0898C201.989 28.6018 201.7 40.9338 201.585 50.5843L201.579 50.5708Z" fill="url(#paint1_linear_307_224)"/>
<path d="M241.834 28.4138C240.503 41.8344 236.095 53.5817 232.526 62.708C230.181 68.6891 227.728 73.8639 225.483 78.5144C223.595 82.4257 221.787 85.9673 220.073 89.1864C218.89 91.4041 217.755 93.4874 216.646 95.4431C215.107 98.1447 213.622 100.618 212.19 102.876C212.076 103.064 211.928 103.279 211.955 103.521C211.982 103.756 212.19 103.857 212.385 103.958C212.587 104.065 212.815 104.18 213.03 104.206C213.326 104.24 213.568 104.173 213.79 104.005C213.937 103.891 214.085 103.776 214.24 103.662C217.56 101.122 221.101 98.1447 224.939 94.7038C231.585 88.716 240.671 80.5641 247.889 68.2254C252.351 60.5709 256.693 50.4701 257.136 40.3828C257.68 28.1449 251.726 19.6907 243.722 16.3842C243.353 16.2297 242.754 16.1557 242.445 16.4044C241.968 16.7874 242.069 18.3399 242.103 18.9313C242.277 22.063 242.156 25.2686 241.847 28.4138H241.834Z" fill="url(#paint2_linear_307_224)"/>
<path d="M191.599 82.5735C193.373 86.5049 195.1 90.0936 196.767 93.4001C197.54 94.9323 198.306 96.4108 199.059 97.8288C199.643 98.9242 200.389 100.268 200.994 101.256C201.081 101.397 201.31 101.586 201.451 101.666C201.706 101.807 201.995 101.834 202.284 101.827C202.493 101.827 202.721 101.747 202.829 101.559C203.017 101.223 202.62 98.9713 202.486 98.2858C202.224 96.8812 201.962 95.4229 201.706 93.9108C200.833 88.7899 199.986 82.9969 199.139 76.3705C198.124 68.4069 197.042 59.0789 196.74 47.997C196.606 43.0508 196.532 37.6543 196.908 32.0091C197.177 28.0172 197.654 23.864 198.494 19.7511C199.307 15.7323 200.813 11.3977 202.022 8.07777C202.325 7.24444 202.042 5.97428 201.512 5.83316C198.998 5.15439 194.697 5.73907 192.842 6.5388C189.879 7.80223 187.345 9.7982 185.161 12.903C180.974 18.8371 179.065 27.8828 179.334 36.915C179.583 45.1879 181.034 53.0776 182.99 59.8652C185.537 68.7026 188.729 76.2294 191.599 82.5735Z" fill="url(#paint3_linear_307_224)"/>
<path d="M258.917 74.0923C259.918 71.5049 260.611 68.8168 260.859 66.1622C260.953 65.1676 261.175 58.9243 259.797 59.4418C259.414 59.5896 259.132 60.1878 258.971 60.5574C255.638 67.9498 251.417 74.0318 247.116 79.1393C241.081 86.2965 234.824 91.5317 229.529 95.7589C224.482 99.7844 219.872 103.057 215.685 105.799C215.449 105.954 214.993 106.149 214.952 106.458C214.905 106.841 215.429 107.103 215.759 107.123C215.927 107.13 216.128 107.076 216.276 107.016C219.583 105.739 223.171 104.401 226.941 102.741C233.433 99.8785 241.982 95.9134 249.159 88.8033C250.147 87.8221 251.115 86.767 252.042 85.6447C254.797 82.3113 257.257 78.3732 258.91 74.0923H258.917Z" fill="url(#paint4_linear_307_224)"/>
<path d="M194.542 118.319C199.724 122.728 206.827 124.206 213.332 122.23C213.823 122.076 214.28 121.626 214.354 121.242C214.428 120.846 214.502 120.456 214.576 120.06C214.65 119.677 214.314 119.468 213.83 119.569C207.405 120.947 200.49 119.509 195.154 115.678C194.75 115.389 194.361 115.449 194.273 115.833C194.186 116.222 194.092 116.619 194.005 117.009C193.917 117.385 194.152 117.99 194.542 118.326V118.319Z" fill="url(#paint5_linear_307_224)"/>
<path d="M214.905 117.452C214.865 117.459 214.824 117.466 214.791 117.473C216.229 115.349 217.627 113.4 219.005 111.74C219.005 111.848 214.979 110.786 212.781 113.454C212.768 113.467 213.763 117.063 210.093 117.204C205.94 117.103 207.425 112.426 209.663 112.479C209.683 112.452 210.517 109.664 206.941 105.84C202.136 107.916 201.794 110.806 201.8 110.84C203.87 111.68 203.366 116.565 199.522 115C196.216 113.4 198.561 110.504 198.554 110.483C197.6 107.157 193.494 106.525 193.534 106.424C194.139 108.494 194.636 110.84 195.114 113.36C195.08 113.34 195.046 113.319 195.013 113.293C194.65 113.057 194.307 113.125 194.233 113.454C194.233 113.454 194.233 113.461 194.233 113.467C194.159 113.797 194.381 114.287 194.73 114.549C194.959 114.717 195.187 114.879 195.423 115.033C198.091 116.834 201.115 118.084 204.267 118.743C207.419 119.401 210.691 119.455 213.857 118.87C214.132 118.817 214.408 118.763 214.683 118.702C215.113 118.608 215.51 118.245 215.57 117.909C215.57 117.909 215.57 117.903 215.57 117.896C215.631 117.567 215.342 117.365 214.919 117.439L214.905 117.452Z" fill="url(#paint6_linear_307_224)"/>
<path d="M92.7686 122.594C92.7686 119.375 95.2081 116.203 98.3331 115.389C101.458 114.576 103.797 116.505 103.797 119.731C103.797 122.755 101.451 126.001 98.3331 126.814C95.2081 127.627 92.7686 125.625 92.7686 122.6V122.594ZM286.988 165.819C286.988 167.62 286.787 170.356 285.745 173.676C285.154 175.564 283.904 179.428 280.631 183.467C276.773 188.232 272.203 190.645 269.677 191.982C268.097 192.815 266.182 193.669 265.369 194.032C264.636 194.361 263.937 194.657 263.272 194.939C260.154 202.735 252.869 216.384 239.858 219.764C232.761 221.605 230.651 218.225 230.651 215.154C230.651 206.236 242.829 197.224 255.873 192.681L256.733 190.248L259.515 182.331C256.256 187.204 252.613 191.028 248.01 192.224C243.118 193.494 241.296 190.611 241.296 187.352C241.296 187.123 241.316 186.881 241.33 186.646C237.506 191.915 232.99 196.209 227.674 197.573C217.795 200.114 216.646 189.401 216.552 184.778C216.263 184.852 216.075 184.899 215.88 184.858L209.932 201.283L200.819 203.622L222.493 143.4C223.071 141.733 223.259 140.833 223.259 139.979C223.259 138.461 222.587 137.587 221.243 137.271C224.314 136.391 233.326 132.742 235.147 131.229L220.665 170.436C225.651 161.659 230.927 157.741 235.046 156.68C238.212 155.866 241.377 156.666 241.377 161.223C241.377 169.005 232.842 177.553 224.018 182.002C224.69 185.813 226.989 191.296 231.881 190.04C237.009 188.723 241.511 181.552 244.401 175.974L249.334 161.861C249.811 160.584 250.1 159.267 250.1 158.212C250.1 156.868 249.623 155.745 248.373 155.403C251.155 154.294 260.55 150.705 262.089 149.442L251.444 179.442C250.967 180.719 250.678 181.942 250.678 182.903C250.678 184.146 251.256 184.865 252.788 184.462C257.009 183.366 261.323 175.342 264.011 169.657L271.585 148.03C273.601 147.6 279.831 145.698 281.269 144.462L266.693 185.456L265.268 189.462C268.151 188.084 271.431 186.021 274.045 183.024C280.107 176.068 277.781 170.577 277.781 170.577L286.975 165.819H286.988ZM232.284 164.885C232.284 163.084 231.424 162.829 230.557 163.051C227.775 163.763 223.171 169.22 217.325 180.873L217.13 181.397C227.009 178.669 232.284 169.247 232.284 164.885ZM254.132 197.224C246.363 200.49 236.599 208.702 236.599 214.079C236.599 215.517 237.56 216.417 239.67 215.873C246.29 214.153 251.256 204.307 254.132 197.231V197.224ZM190.154 203.964C189.737 204.361 189.314 204.737 188.884 205.114C184.092 209.193 178.051 211.861 171.814 212.694C165.86 213.494 158.817 212.808 154.173 208.649C150.443 205.308 148.682 200.356 149.16 195.409C149.22 194.811 149.314 194.227 149.442 193.649C144.099 191.377 135.699 191.001 126.129 192.063L111.129 194.589C102.385 196.619 93.5213 199.354 85.7189 202.634C69.0523 209.636 56.922 219.005 60.6182 227.802C52.8225 228.118 47.2244 225.214 45.3427 220.739C42.3521 213.615 48.5214 202.479 69.6235 193.615C83.0979 187.956 101.357 183.736 118.602 183.064L130.531 183.145C137.15 183.655 143.367 184.778 148.723 186.693L156.155 163.178L156.108 163.192C160.047 151.538 159.677 150.672 161.72 144.737C158.306 151.774 154.301 156.323 149.227 157.647C143.467 159.146 141.129 156.142 141.129 151.068C141.129 150.725 141.142 150.362 141.162 150C137.016 156.27 131.895 161.733 126.33 163.178C121.451 164.448 119.301 161.78 119.301 157.681C119.301 149.381 127.984 136.196 127.984 130.631C127.984 130.047 127.883 128.118 125.739 128.676C123.105 129.361 119.395 133.346 115.101 141.982L105.927 167.594L96.653 169.999L99.1799 162.896C95.2955 168.057 90.7995 172.284 86.0616 173.514C81.0818 174.805 79.227 171.874 79.227 168.555C79.227 168.407 79.2404 168.245 79.2471 168.091C76.5926 171.888 71.3103 177.856 63.5752 179.932C56.0752 181.942 52.7419 177.956 52.6814 168.689C52.6747 167.419 52.762 165.631 52.7486 163.575C52.7217 159.361 52.3857 154.334 50.6518 152.036C49.926 152.365 49.18 152.728 48.4139 153.118C47.4798 153.595 46.6061 154.079 45.7862 154.563C44.6371 158.971 42.8427 165.51 40.383 173.387C38.8306 178.346 37.6546 183.521 35.5914 188.326C33.8642 192.338 31.4516 196.135 28.0847 198.924C24.8119 201.632 20.7326 203.299 16.5323 203.938C13.9382 204.334 11.2501 204.341 8.7232 203.622C3.44768 202.123 -0.436712 196.901 0.0673181 191.337C0.295812 188.796 1.40468 186.901 2.14392 185.86C1.95575 190.376 7.02966 192.641 11.0888 192.372C15.9409 192.049 19.5699 188.225 22.3925 184.771C25.8737 180.517 28.5686 175.685 31.0551 170.84C38.3064 156.606 45.2486 127.782 53.7163 120.302C48.34 120.107 42.3454 120.571 37.7755 121.754C28.2124 124.24 20.5175 131.035 20.6116 138.689C20.6654 143.151 23.2326 144.368 26.1761 143.595C29.1196 142.822 31.7406 140.147 31.8078 136.458C33.3401 136.653 34.1667 138.326 34.1868 140.604C34.2473 146.639 28.5014 151.518 22.5135 153.091C16.2097 154.751 9.6439 152.607 9.52293 143.877C9.38852 134.032 17.5404 122.096 35.5914 117.419C45.7526 114.785 51.3575 116.525 56.6195 115.161C58.2392 114.738 60.1545 113.945 61.3641 112.936L64.2875 116.397L63.1787 117.083C59.0456 120.047 55.047 127.446 51.3642 137.231L46.4045 150.396C46.586 150.295 46.7809 150.201 46.9758 150.107C49.7983 148.723 52.3991 146.922 54.5698 144.65C67.9434 130.625 73.3466 109.771 86.7202 106.303C87.9232 105.994 89.1261 105.873 90.4366 105.833C90.4366 106.33 90.3358 106.848 90.3358 107.446C90.3358 109.428 90.739 111.801 91.6396 114.63C91.2364 114.738 90.8399 114.738 90.4366 114.845C80.0066 117.567 66.5926 136.794 55.2755 147.862C68.8171 147.6 58.2593 171.942 68.4206 169.663C74.1128 167.963 80.6719 159.663 83.649 153.42L87.4326 142.614C87.9232 141.317 88.2122 139.973 88.2122 138.897C88.2122 137.533 87.7216 136.391 86.4581 136.035C89.4823 135.248 98.8506 131.25 100.416 129.966L89.5831 160.497C89.0925 161.794 88.8036 163.044 88.8036 164.018C88.8036 165.288 89.3882 166.014 90.9541 165.604C95.7189 164.368 101.646 154.301 104.294 148.528L108.279 137.305C108.864 135.591 109.059 134.469 109.059 133.588C109.059 132.029 108.568 131.082 107.204 130.752C110.329 129.845 117.648 126.767 119.502 125.215L116.283 134.448L116.868 134.294C121.162 126.834 126.337 123.051 130.242 122.036C134.536 120.92 137.856 122.983 137.856 127.184C137.856 134.012 129.072 147.715 129.072 153.279C129.072 154.939 129.758 155.638 131.317 155.235C136.028 154.012 141.397 144.2 144.072 138.494C148.447 127.473 157.009 115.51 164.852 113.474C169.341 112.305 170.9 115.121 170.9 119.321C170.9 119.811 170.9 120.201 170.799 120.712L171.384 120.557C171.68 119.018 172.553 114.005 172.459 112.957C174.509 112.52 180.853 110.484 182.318 109.227L167.486 150.853L166.263 154.287C166.263 154.287 165.92 155.456 165.255 157.358L158.541 181.72C163.918 178.192 169.939 176.948 176.256 178.588C180.174 179.61 182.93 181.901 183.326 186.081C183.736 190.436 180.047 194.939 175.551 195.792C173.407 196.202 172.157 195.618 171.418 193.77C171.418 193.77 178.118 190.779 176.209 186.243C174.63 182.486 165.577 180.389 160.289 187.251C157.311 191.753 157.345 195.544 157.6 197.311C158.588 203.124 163.205 207.896 169.556 207.889C175.033 207.889 180.443 206.041 184.442 202.244C185.006 201.706 185.544 201.135 186.041 200.53C188.723 197.304 190.913 192.58 190.887 188.313C190.86 183.877 187.278 180.9 184.092 178.4C179.684 174.946 174.791 171.128 174.791 163.555C174.791 153.138 182.916 144.832 191.868 140.712C196.155 138.736 201.404 137.083 206.149 137.963C207.587 138.232 208.891 138.723 210.013 139.408C213.218 141.364 214.993 144.885 214.482 149.072C213.958 153.407 211.935 156.969 208.326 159.287C206.989 160.147 205.416 160.611 203.958 160.9C202.009 161.283 200.927 160.268 200.456 158.017C202.815 158.017 204.885 157.049 206.498 154.704C207.526 153.212 208.124 151.552 208.333 149.926C208.588 146.008 206.364 143.252 202.459 142.668C193.46 141.323 184.758 150.799 184.758 159.435C184.758 165.43 189.556 168.239 193.897 171.35C194.583 171.841 195.241 172.365 195.866 172.93C206.115 182.177 199.193 196.706 190.181 203.944L190.154 203.964ZM166.969 127.762C167.553 125.268 168.044 122.795 168.044 120.947C168.044 118.897 167.459 117.681 165.893 118.091C160.329 119.536 151.061 139.61 151.061 147.123C151.061 149.274 151.747 150.362 153.407 149.932C158.091 148.716 163.266 136.438 166.975 127.768L166.969 127.762Z" fill="url(#paint7_linear_307_224)"/>
</g>
<defs>
<linearGradient id="paint0_linear_307_224" x1="166.75" y1="75.5573" x2="194.623" y2="73.3979" gradientUnits="userSpaceOnUse">
<stop stop-color="#CD7DED"/>
<stop offset="0.5" stop-color="#A83E91"/>
<stop offset="1" stop-color="#8A179A"/>
</linearGradient>
<linearGradient id="paint1_linear_307_224" x1="201.441" y1="50.6853" x2="235.324" y2="52.0699" gradientUnits="userSpaceOnUse">
<stop offset="0.01" stop-color="#EB5B61"/>
<stop offset="0.5" stop-color="#E71C24"/>
<stop offset="1" stop-color="#E71C24"/>
</linearGradient>
<linearGradient id="paint2_linear_307_224" x1="214.523" y1="59.4325" x2="255.862" y2="61.8596" gradientUnits="userSpaceOnUse">
<stop stop-color="#FFC60B"/>
<stop offset="0.5" stop-color="#F57E20"/>
<stop offset="1" stop-color="#F57E20"/>
</linearGradient>
<linearGradient id="paint3_linear_307_224" x1="179.028" y1="53.3879" x2="203.515" y2="53.7298" gradientUnits="userSpaceOnUse">
<stop stop-color="#E875A4"/>
<stop offset="0.5" stop-color="#E20585"/>
<stop offset="1" stop-color="#C51785"/>
</linearGradient>
<linearGradient id="paint4_linear_307_224" x1="218.297" y1="80.7404" x2="258.34" y2="85.9128" gradientUnits="userSpaceOnUse">
<stop offset="0.01" stop-color="#FCEC04"/>
<stop offset="0.5" stop-color="#FFC60B"/>
<stop offset="1" stop-color="#FFC60B"/>
</linearGradient>
<linearGradient id="paint5_linear_307_224" x1="194.022" y1="119.29" x2="214.627" y2="119.29" gradientUnits="userSpaceOnUse">
<stop stop-color="#EF9470"/>
<stop offset="0.47" stop-color="#CB754C"/>
<stop offset="0.77" stop-color="#BC592D"/>
<stop offset="1" stop-color="#C66539"/>
</linearGradient>
<linearGradient id="paint6_linear_307_224" x1="193.567" y1="112.556" x2="219.04" y2="112.554" gradientUnits="userSpaceOnUse">
<stop stop-color="#EF9470"/>
<stop offset="0.47" stop-color="#CB754C"/>
<stop offset="0.77" stop-color="#BC592D"/>
<stop offset="1" stop-color="#C66539"/>
</linearGradient>
<linearGradient id="paint7_linear_307_224" x1="0.000114039" y1="166.834" x2="286.982" y2="166.834" gradientUnits="userSpaceOnUse">
<stop stop-color="#CF6E42"/>
<stop offset="0.23" stop-color="#A53D29"/>
<stop offset="0.41" stop-color="#EF9470"/>
<stop offset="0.59" stop-color="#CB754C"/>
<stop offset="0.77" stop-color="#BC592D"/>
<stop offset="1" stop-color="#C66539"/>
</linearGradient>
<clipPath id="clip0_307_224">
<rect width="286.982" height="227.829" fill="white"/>
</clipPath>
</defs>
</svg>
