<svg width="281" height="68" viewBox="0 0 281 68" fill="none" xmlns="http://www.w3.org/2000/svg">
<g clip-path="url(#clip0_307_236)">
<path d="M0.418091 0C0.678624 0.0121178 0.939156 0.0302945 1.19969 0.0302945C22.9754 0.0302945 44.7511 0.0302945 66.5267 0.0302945H67.4416C67.0599 10.288 64.2789 19.7944 58.9349 28.5071C50.8221 41.7276 39.1345 50.2949 24.3205 54.8088C23.9327 53.7485 23.7751 52.7003 23.8297 51.6461C24.0114 48.035 25.7625 45.5205 29.1009 44.0603C40.7219 38.9769 49.0771 30.5429 54.518 19.1582C56.0873 15.8804 57.196 12.4389 57.9958 8.90052C58.0261 8.75511 58.0322 8.60364 58.0503 8.38552C57.8322 8.3734 57.6383 8.35522 57.4384 8.35522C41.4247 8.35522 25.4111 8.35522 9.39738 8.34311C8.91267 8.34311 8.65214 8.53699 8.3916 8.88841C5.59239 12.7176 3.64748 16.9589 2.29029 21.4788C1.32087 24.7688 0.702859 28.1194 0.490798 31.5426C0.484739 31.6517 0.442326 31.7608 0.418091 31.8638C0.418091 21.2425 0.418091 10.6213 0.418091 0Z" fill="#119548"/>
<path d="M0.418091 66.5387C0.496857 65.7814 0.58774 65.024 0.654388 64.2666C1.57534 53.3848 5.23492 43.5088 11.6513 34.675C19.0189 24.5384 28.7253 17.5343 40.528 13.384C41.4247 13.0689 42.3336 12.7842 43.2363 12.4873C43.3393 12.4509 43.4484 12.4327 43.6665 12.3843C43.7998 13.0629 43.9937 13.7294 44.0422 14.4019C44.3572 18.4916 42.5032 21.4605 38.783 23.1328C24.8355 29.4037 15.6744 39.9523 10.9545 54.433C10.494 55.8448 10.1729 57.2989 9.76091 58.8318C10.082 58.8318 10.282 58.8318 10.488 58.8318C26.5017 58.8318 42.5153 58.8318 58.529 58.8439C58.9834 58.8439 59.2439 58.6864 59.4984 58.341C62.5945 54.1119 64.703 49.4102 65.9875 44.351C66.6297 41.8123 67.0296 39.207 67.4538 36.6017V37.1046C67.4538 46.8655 67.4538 56.6264 67.4538 66.3872C67.4538 66.9043 67.1831 67.1628 66.6419 67.1628C44.848 67.1628 23.0541 67.1628 1.26028 67.1628C0.981568 67.1628 0.702859 67.1991 0.42415 67.2173C0.42415 66.9931 0.42415 66.769 0.42415 66.5448L0.418091 66.5387Z" fill="#119548"/>
<path d="M116.943 1.01794C115.652 1.01794 114.537 0.987648 113.417 1.024C112.114 1.06641 110.787 1.0543 109.509 1.27242C107.715 1.57536 106.231 2.59326 104.873 3.76262C102.098 6.14983 99.8688 9.00963 97.8209 12.0088C96.7485 13.578 95.8457 15.2624 94.8399 16.8801C94.7188 17.0801 94.4582 17.2437 94.234 17.3224C93.9675 17.4133 93.8463 17.2376 93.8463 16.9468C93.8584 11.3544 93.8645 5.76812 93.8705 0.175755C93.8705 0.157578 93.8826 0.139402 93.9008 0.0727539H132.49C132.345 0.418111 132.272 0.733174 132.096 0.981589C126.873 8.39162 121.638 15.7895 116.404 23.1935C113.362 27.4953 110.32 31.8032 107.279 36.105C107.182 36.2444 107.043 36.3777 107.018 36.5292C107 36.6443 107.115 36.8079 107.218 36.8987C107.285 36.9533 107.436 36.9109 107.545 36.9109C109.993 36.8442 112.441 36.7957 114.895 36.7109C116.082 36.6685 117.137 36.1596 118.124 35.5476C120.069 34.3358 121.626 32.6939 123.087 30.955C125.855 27.6468 128.327 24.1387 130.254 20.2731C130.466 19.849 130.745 19.8369 131.163 19.9399C131.175 20.1277 131.193 20.3277 131.193 20.5276C131.193 26.0836 131.193 31.6336 131.205 37.1896C131.205 37.7228 131.072 37.8863 130.521 37.8863C117.724 37.8742 104.934 37.8742 92.1377 37.8682C91.9135 37.8682 91.6954 37.7712 91.4712 37.7228C91.55 37.4683 91.5621 37.1653 91.7075 36.9593C95.5731 31.4518 99.4508 25.9503 103.322 20.4488C107.703 14.2324 112.09 8.00991 116.464 1.79348C116.616 1.57536 116.743 1.33906 116.937 1.01794H116.943Z" fill="#119548"/>
<path d="M146.492 0.75741C146.492 0.557466 146.492 0.448406 146.492 0.333287C146.492 0.26058 146.504 0.187873 146.516 0.0727539H186.335V15.2806C185.833 15.4805 185.584 15.2806 185.36 14.808C183.312 10.4456 180.628 6.54366 176.902 3.42333C175.732 2.44784 174.496 1.51477 172.933 1.34512C171 1.13912 169.055 1.08459 167.117 0.981589C166.638 0.957353 166.153 0.981589 165.59 0.981589V18.001C167.989 18.201 170.364 17.8314 171.97 15.6138C173.036 14.1415 173.569 12.4632 173.757 10.6698C173.806 10.2093 173.848 9.74882 173.89 9.25805H174.672V27.9982H173.933C173.8 27.0409 173.715 26.0776 173.515 25.1384C173.163 23.4904 172.527 21.9636 171.328 20.7275C170.273 19.643 168.971 19.1159 167.468 19.0492C166.838 19.0189 166.208 18.9765 165.523 18.9341C165.511 19.2007 165.493 19.3946 165.493 19.5945C165.493 25.1505 165.493 30.7005 165.481 36.2565C165.481 36.7957 165.62 36.9593 166.171 36.9351C168.692 36.8079 171.212 36.7109 173.733 36.614C175.151 36.5594 176.387 36.0747 177.483 35.1841C179.125 33.8511 180.458 32.2455 181.719 30.5611C183.712 27.9013 185.348 25.0354 186.481 21.903C186.657 21.4183 186.923 21.3758 187.365 21.5031V37.8439C187.166 37.8561 186.984 37.8742 186.802 37.8742C173.63 37.8742 160.458 37.8742 147.292 37.8742C147.092 37.8742 146.807 37.8318 146.704 37.7046C146.498 37.4259 146.722 37.129 147.134 37.0926C148.061 37.0078 148.994 36.923 149.928 36.8563C152.121 36.6927 152.484 35.3901 152.636 33.9723C152.733 33.0816 152.763 32.1789 152.763 31.2821C152.769 22.8845 152.763 14.4869 152.757 6.0953C152.757 5.36823 152.709 4.63511 152.636 3.9141C152.454 2.02978 151.551 1.1573 149.649 0.993707C148.904 0.933118 148.158 0.914941 147.413 0.86647C147.116 0.848293 146.825 0.805881 146.486 0.763468L146.492 0.75741Z" fill="#119548"/>
<path d="M266.87 1.03006C266.87 1.28453 266.87 1.50265 266.87 1.72683C266.87 11.5059 266.864 21.285 266.882 31.064C266.882 32.2576 266.961 33.4573 267.119 34.6388C267.313 36.0687 268.082 36.717 269.518 36.8382C270.506 36.9169 271.493 36.9896 272.481 37.0623C272.784 37.0866 273.093 37.0442 273.081 37.5107C273.075 37.9772 272.754 37.8803 272.493 37.8803C267.61 37.8803 262.726 37.8803 257.843 37.8803C254.68 37.8803 251.517 37.8803 248.36 37.8803C248.112 37.8803 247.773 38.0075 247.748 37.5349C247.724 37.0684 248.045 37.0926 248.342 37.0745C249.257 37.032 250.172 36.9957 251.087 36.9533C253.002 36.8745 253.88 36.0384 254.013 34.1359C254.086 33.0938 254.135 32.0456 254.135 30.9974C254.147 21.2365 254.135 11.4756 254.135 1.71472C254.135 1.49054 254.135 1.27242 254.135 0.987648C252.553 0.97553 250.966 0.848293 249.796 2.08431C248.682 3.25974 247.609 4.49575 246.688 5.82265C244.477 9.00963 242.786 12.4935 241.132 15.9895C241.059 16.141 241.029 16.3591 240.908 16.4318C240.708 16.553 240.454 16.6196 240.223 16.6257C240.157 16.6257 240.011 16.353 240.011 16.2015C239.999 10.9303 240.005 5.653 240.005 0.381758C240.005 0.290874 240.029 0.199991 240.048 0.0727539H280.969V16.5772C280.485 16.7832 280.182 16.6741 279.939 16.141C278.091 12.1118 276.098 8.16139 273.426 4.59875C272.941 3.95651 272.402 3.35668 271.893 2.73867C270.597 1.16336 268.864 0.824058 266.864 1.03006H266.87Z" fill="#119548"/>
<path d="M201.767 0.048584H225.864V0.763534C225.543 0.793829 225.215 0.8423 224.882 0.860476C224.264 0.902889 223.652 0.921066 223.034 0.975596C221.126 1.14524 220.417 1.86019 220.296 3.76875C220.235 4.68364 220.174 5.59854 220.174 6.51343C220.168 14.9292 220.174 23.3451 220.174 31.7609C220.174 32.5606 220.229 33.3665 220.29 34.1662C220.429 35.9597 221.326 36.814 223.174 36.9412C223.882 36.9897 224.591 37.0503 225.3 37.0503C225.846 37.0503 226.009 37.2745 225.839 37.844C225.67 37.8561 225.47 37.8743 225.276 37.8743C217.569 37.8743 209.862 37.8743 202.155 37.8743C201.961 37.8743 201.713 37.8743 201.58 37.7592C201.355 37.5714 201.549 37.1593 201.87 37.123C202.797 37.026 203.737 36.9897 204.658 36.8443C206.463 36.5595 207.19 35.7476 207.311 33.936C207.384 32.8939 207.433 31.8457 207.433 30.7975C207.445 22.83 207.445 14.8626 207.433 6.89514C207.433 5.75607 207.378 4.61094 207.227 3.49004C206.996 1.79961 206.445 1.25431 204.343 0.987713C203.676 0.902889 202.997 0.902889 202.331 0.854418C201.683 0.805946 201.658 0.769593 201.767 0.048584Z" fill="#119548"/>
<path d="M96.6759 51.4097C96.6759 51.5915 96.6759 51.7732 96.6759 51.955C96.6759 56.1599 96.6759 60.3708 96.6759 64.5757C96.6759 64.7817 96.6759 64.9877 96.694 65.1937C96.7486 66.1692 97.1909 66.6175 98.1482 66.6842C98.2754 66.6963 98.4027 66.7145 98.5723 66.7387V67.7021H92.7558V66.7448C92.9618 66.7266 93.1617 66.7024 93.3617 66.6903C94.6461 66.6297 95.1672 66.0904 95.1733 64.7878C95.1793 62.9398 95.1733 61.0858 95.1733 59.2378C95.1733 56.8991 95.1733 54.5664 95.1733 52.2277C95.1733 50.8462 94.7552 50.3736 93.4101 50.204C92.8931 50.1394 92.677 49.8081 92.7618 49.2103C92.9133 49.1982 93.0769 49.18 93.2405 49.18C94.8461 49.18 96.4578 49.1922 98.0634 49.1679C98.4511 49.1679 98.6087 49.2952 98.7359 49.6526C100.396 54.2695 102.074 58.8743 103.747 63.4851C103.807 63.6547 103.874 63.8183 103.995 64.1213C104.122 63.7941 104.207 63.5942 104.28 63.3942C105.916 58.8319 107.564 54.2695 109.181 49.7011C109.327 49.2952 109.509 49.1619 109.933 49.1679C111.629 49.1922 113.332 49.18 115.065 49.18V50.1192C114.774 50.1555 114.471 50.1979 114.162 50.2343C113.15 50.3494 112.635 50.9008 112.635 51.949C112.623 54.736 112.635 57.5171 112.635 60.3042C112.635 61.7825 112.635 63.2609 112.635 64.7332C112.635 66.1086 113.144 66.6357 114.501 66.6963C114.683 66.7024 114.865 66.7266 115.077 66.7448V67.696H108.309C108.079 66.866 108.133 66.769 108.927 66.6721C109.557 66.5994 109.957 66.2601 110.108 65.6481C110.169 65.3937 110.211 65.1331 110.211 64.8726C110.218 60.4435 110.211 56.0084 110.211 51.5794C110.211 51.4885 110.199 51.3976 110.09 51.2643C110.005 51.4461 109.909 51.6218 109.842 51.8096C108.006 56.9173 106.176 62.0249 104.359 67.1386C104.207 67.5567 104.044 67.7748 103.547 67.7506C103.068 67.7263 102.765 67.7142 102.559 67.1386C100.76 62.0976 98.9177 57.0748 97.0818 52.0459C97.0031 51.8217 96.9061 51.6097 96.8213 51.3915C96.7728 51.3976 96.7243 51.4037 96.6759 51.4097Z" fill="#119548"/>
<path d="M143.929 67.6415V66.7447C144.172 66.7266 144.39 66.6963 144.608 66.6902C145.771 66.6357 146.359 66.0601 146.365 64.8968C146.383 63.2124 146.365 61.5341 146.365 59.8497C146.365 57.3474 146.365 54.839 146.365 52.3367C146.365 50.7735 146.007 50.3736 144.438 50.1858C144.275 50.1676 144.111 50.1373 143.923 50.1131V49.2163C144.087 49.2042 144.25 49.18 144.408 49.18C147.025 49.18 149.649 49.1073 152.26 49.2163C153.411 49.2648 154.599 49.5375 155.683 49.9374C157.483 50.6038 158.731 51.9671 159.422 53.7484C160.627 56.8506 160.646 60.0072 159.44 63.0973C158.343 65.9026 156.138 67.4536 153.175 67.6112C150.121 67.7748 147.049 67.6475 143.923 67.6475L143.929 67.6415ZM148.904 58.4259C148.904 60.9282 148.91 63.4366 148.897 65.9389C148.897 66.3509 149.013 66.5024 149.437 66.4842C150.164 66.4539 150.897 66.4842 151.624 66.46C154.114 66.3873 155.974 65.1331 156.792 62.7883C157.804 59.8982 157.804 56.9536 156.792 54.0574C156.12 52.1125 154.744 50.8462 152.678 50.519C151.636 50.3554 150.558 50.4221 149.491 50.3554C149.019 50.3251 148.885 50.5069 148.891 50.9613C148.91 53.4455 148.897 55.9357 148.897 58.4198L148.904 58.4259Z" fill="#119548"/>
<path d="M188.165 66.7267V67.7022H181.991V66.7934C182.04 66.7692 182.088 66.7267 182.137 66.7267C183.361 66.8419 183.851 66.0482 184.215 65.0787C185.736 61.0071 187.262 56.9416 188.789 52.8761C189.201 51.7734 189.619 50.6767 190.019 49.574C190.122 49.2892 190.262 49.1741 190.577 49.1681C192.146 49.1438 192.14 49.1378 192.667 50.5858C194.424 55.4027 196.181 60.2195 197.944 65.0363C198.072 65.3877 198.187 65.7755 198.423 66.036C198.683 66.3208 199.053 66.5874 199.423 66.6601C200.259 66.8358 200.271 66.7873 200.162 67.6962H193.2V66.7449C193.515 66.7267 193.812 66.7086 194.103 66.6843C194.969 66.6056 195.503 65.9633 195.266 65.1333C194.939 63.9881 194.509 62.8733 194.091 61.7524C194.042 61.6191 193.782 61.4919 193.612 61.4919C191.576 61.4737 189.535 61.4737 187.499 61.4919C187.335 61.4919 187.081 61.6312 187.026 61.7645C186.62 62.8672 186.208 63.9639 185.893 65.0969C185.651 65.9633 186.178 66.5995 187.081 66.6783C187.432 66.7086 187.784 66.7146 188.153 66.7328L188.165 66.7267ZM187.626 60.2377H193.564C192.57 57.3476 191.595 54.5241 190.643 51.7673C189.656 54.5362 188.656 57.3536 187.632 60.2377H187.626Z" fill="#119548"/>
<path d="M136.289 67.7202H122.547C122.238 66.8962 122.347 66.7265 123.19 66.6841C124.256 66.6296 124.741 66.1812 124.862 65.1149C124.886 64.9089 124.892 64.7029 124.892 64.4969C124.892 60.498 124.892 56.493 124.892 52.4942C124.892 52.3063 124.892 52.1185 124.868 51.9368C124.747 50.7431 124.353 50.3493 123.153 50.2039C122.347 50.107 122.341 50.107 122.487 49.2163H135.459V53.5848C135.314 53.5908 135.132 53.5908 134.956 53.6211C134.447 53.6999 134.235 53.4878 134.247 52.9728C134.253 52.7365 134.193 52.4881 134.15 52.2518C133.914 51.0643 133.193 50.4038 131.987 50.3675C130.624 50.3311 129.255 50.3675 127.891 50.3493C127.546 50.3493 127.443 50.4766 127.443 50.8098C127.455 52.8638 127.461 54.9238 127.443 56.9778C127.443 57.4382 127.704 57.4322 128.019 57.4322C129.685 57.4322 131.351 57.4322 133.011 57.4322C133.229 57.4322 133.453 57.4322 133.629 57.4322C133.69 57.5291 133.72 57.5594 133.726 57.5897C133.775 58.2521 133.476 58.5834 132.829 58.5834C131.296 58.5834 129.764 58.5834 128.225 58.5834C127.982 58.5834 127.746 58.6076 127.443 58.6258V59.2135C127.443 61.4371 127.455 63.6668 127.431 65.8904C127.431 66.3691 127.54 66.5508 128.049 66.5387C129.654 66.4963 131.266 66.5629 132.872 66.4599C134.15 66.3751 134.829 65.6117 135.035 64.3514C135.065 64.1697 135.132 63.9818 135.126 63.8001C135.108 63.3396 135.35 63.2427 135.756 63.2487C136.453 63.2608 136.459 63.2487 136.447 63.9697C136.434 64.4726 136.428 64.9816 136.41 65.4845C136.38 66.2115 136.337 66.9325 136.295 67.7081L136.289 67.7202Z" fill="#119548"/>
<path d="M168.207 49.1921H175.569V50.1131C175.254 50.1494 174.945 50.1979 174.636 50.2282C173.709 50.3312 173.176 50.8765 173.145 51.8096C173.121 52.4458 173.133 53.082 173.133 53.7181C173.133 57.4201 173.133 61.1221 173.133 64.8241C173.133 66.0843 173.678 66.6357 174.927 66.6902C175.127 66.6963 175.333 66.7205 175.569 66.7387V67.69C173.127 67.69 170.667 67.69 168.213 67.69C167.965 66.8175 168.025 66.7266 168.904 66.6842C169.873 66.6357 170.376 66.1995 170.522 65.2422C170.57 64.9513 170.588 64.6484 170.588 64.3515C170.588 60.4253 170.588 56.4992 170.588 52.573C170.588 52.367 170.588 52.161 170.57 51.955C170.455 50.7735 170.037 50.3494 168.862 50.21C168.025 50.1131 168.007 50.0767 168.201 49.1982L168.207 49.1921Z" fill="#119548"/>
</g>
<defs>
<clipPath id="clip0_307_236">
<rect width="280.563" height="67.7567" fill="white" transform="translate(0.418091)"/>
</clipPath>
</defs>
</svg>
